<svg width="476" height="829" viewBox="0 0 476 829" fill="none" xmlns="http://www.w3.org/2000/svg">
<path d="M235.374 632.137L5.91994 709.52C-0.29821 711.617 -0.731618 720.241 5.24503 722.95L234.699 826.96C236.595 827.82 238.77 827.821 240.667 826.964L470.788 722.954C476.772 720.248 476.338 711.612 470.111 709.518L239.992 632.135C238.494 631.631 236.871 631.632 235.374 632.137Z" fill="#530009" stroke="white"/>
<path d="M474.888 706.165H462.232V715.922H474.888V706.165Z" fill="#530009"/>
<path d="M13.9502 711.925H1.29443V721.683H13.9502V711.925Z" fill="#530009"/>
<path d="M235.374 622.379L5.91994 699.762C-0.298211 701.859 -0.731617 710.484 5.24503 713.193L234.699 817.203C236.595 818.062 238.77 818.063 240.667 817.206L470.788 713.197C476.772 710.491 476.338 701.855 470.111 699.761L239.992 622.377C238.494 621.874 236.871 621.874 235.374 622.379Z" fill="#530009" stroke="white"/>
<path d="M235.374 622.379L5.91994 699.762C-0.298211 701.859 -0.731617 710.484 5.24503 713.193L234.699 817.203C236.595 818.062 238.77 818.063 240.667 817.206L470.788 713.197C476.772 710.491 476.338 701.855 470.111 699.761L239.992 622.377C238.494 621.874 236.871 621.874 235.374 622.379Z" fill="#530009" stroke="white"/>
<path d="M1.4751 711.564V721.682" stroke="white"/>
<path d="M475.068 713.165V724.006" stroke="white"/>
<path d="M184.951 639.861L432.643 729.485" stroke="white"/>
<path d="M122.764 660.101L368.649 759.482" stroke="white"/>
<path d="M53.7007 683.592L304.285 788.394" stroke="white"/>
<path d="M52 733.237L297.522 640" stroke="white"/>
<path d="M112 762L353 660" stroke="white"/>
<path d="M172 789L417 681" stroke="white"/>
<path d="M235.374 425.137L5.91994 502.52C-0.29821 504.617 -0.731618 513.241 5.24503 515.95L234.699 619.96C236.595 620.82 238.77 620.821 240.667 619.964L470.788 515.954C476.772 513.248 476.338 504.612 470.111 502.518L239.992 425.135C238.494 424.631 236.871 424.632 235.374 425.137Z" fill="#530009" stroke="white"/>
<path d="M474.888 499.165H462.232V508.922H474.888V499.165Z" fill="#530009"/>
<path d="M13.9502 504.925H1.29443V514.683H13.9502V504.925Z" fill="#530009"/>
<path d="M235.374 415.379L5.91994 492.762C-0.298211 494.859 -0.731617 503.484 5.24503 506.193L234.699 610.203C236.595 611.062 238.77 611.063 240.667 610.206L470.788 506.197C476.772 503.491 476.338 494.855 470.111 492.761L239.992 415.377C238.494 414.874 236.871 414.874 235.374 415.379Z" fill="#530009" stroke="white"/>
<path d="M235.374 415.379L5.91994 492.762C-0.298211 494.859 -0.731617 503.484 5.24503 506.193L234.699 610.203C236.595 611.062 238.77 611.063 240.667 610.206L470.788 506.197C476.772 503.491 476.338 494.855 470.111 492.761L239.992 415.377C238.494 414.874 236.871 414.874 235.374 415.379Z" fill="#530009" stroke="white"/>
<path d="M1.4751 504.564V514.682" stroke="white"/>
<path d="M475.068 506.165V517.006" stroke="white"/>
<path d="M184.951 432.861L432.643 522.485" stroke="white"/>
<path d="M122.764 453.101L368.649 552.482" stroke="white"/>
<path d="M53.7007 476.592L304.285 581.394" stroke="white"/>
<path d="M52 526.237L297.522 433" stroke="white"/>
<path d="M112 555L353 453" stroke="white"/>
<path d="M172 582L417 474" stroke="white"/>
<path d="M235.374 218.137L5.91994 295.52C-0.29821 297.617 -0.731618 306.241 5.24503 308.95L234.699 412.96C236.595 413.82 238.77 413.821 240.667 412.964L470.788 308.954C476.772 306.248 476.338 297.612 470.111 295.518L239.992 218.135C238.494 217.631 236.871 217.632 235.374 218.137Z" fill="#530009" stroke="white"/>
<path d="M474.888 292.165H462.232V301.922H474.888V292.165Z" fill="#530009"/>
<path d="M13.9502 297.925H1.29443V307.683H13.9502V297.925Z" fill="#530009"/>
<path d="M235.374 208.379L5.91994 285.762C-0.298211 287.859 -0.731617 296.484 5.24503 299.193L234.699 403.203C236.595 404.062 238.77 404.063 240.667 403.206L470.788 299.197C476.772 296.491 476.338 287.855 470.111 285.761L239.992 208.377C238.494 207.874 236.871 207.874 235.374 208.379Z" fill="#530009" stroke="white"/>
<path d="M235.374 208.379L5.91994 285.762C-0.298211 287.859 -0.731617 296.484 5.24503 299.193L234.699 403.203C236.595 404.062 238.77 404.063 240.667 403.206L470.788 299.197C476.772 296.491 476.338 287.855 470.111 285.761L239.992 208.377C238.494 207.874 236.871 207.874 235.374 208.379Z" fill="#530009" stroke="white"/>
<path d="M1.4751 297.564V307.682" stroke="white"/>
<path d="M475.068 299.165V310.006" stroke="white"/>
<path d="M184.951 225.861L432.643 315.485" stroke="white"/>
<path d="M122.764 246.101L368.649 345.482" stroke="white"/>
<path d="M53.7007 269.592L304.285 374.394" stroke="white"/>
<path d="M52 319.237L297.522 226" stroke="white"/>
<path d="M112 348L353 246" stroke="white"/>
<path d="M172 375L417 267" stroke="white"/>
<path d="M235.374 11.1367L5.91994 88.5196C-0.29821 90.6167 -0.731618 99.2411 5.24503 101.95L234.699 205.96C236.595 206.82 238.77 206.821 240.667 205.964L470.788 101.954C476.772 99.2483 476.338 90.612 470.111 88.5181L239.992 11.1347C238.494 10.6308 236.871 10.6316 235.374 11.1367Z" fill="#530009" stroke="white"/>
<path d="M474.888 85.1646H462.232V94.9219H474.888V85.1646Z" fill="#530009"/>
<path d="M13.9502 90.9253H1.29443V100.683H13.9502V90.9253Z" fill="#530009"/>
<path d="M235.374 1.3794L5.91994 78.7623C-0.298211 80.8594 -0.731617 89.4838 5.24503 92.1931L234.699 196.203C236.595 197.062 238.77 197.063 240.667 196.206L470.788 92.1967C476.772 89.491 476.338 80.8547 470.111 78.7608L239.992 1.37737C238.494 0.873517 236.871 0.874229 235.374 1.3794Z" fill="#530009" stroke="white"/>
<path d="M235.374 1.3794L5.91994 78.7623C-0.298211 80.8594 -0.731617 89.4838 5.24503 92.1931L234.699 196.203C236.595 197.062 238.77 197.063 240.667 196.206L470.788 92.1967C476.772 89.491 476.338 80.8547 470.111 78.7608L239.992 1.37737C238.494 0.873517 236.871 0.874229 235.374 1.3794Z" fill="#530009" stroke="white"/>
<path d="M1.4751 90.5637V100.682" stroke="white"/>
<path d="M475.068 92.1646V103.006" stroke="white"/>
<path d="M184.951 18.8613L432.643 108.485" stroke="white"/>
<path d="M122.764 39.1011L368.649 138.482" stroke="white"/>
<path d="M53.7007 62.5923L304.285 167.394" stroke="white"/>
<path d="M52 112.237L297.522 19" stroke="white"/>
<path d="M112 141L353 39" stroke="white"/>
<path d="M172 168L417 60" stroke="white"/>
</svg>
