<svg width="649" height="963" viewBox="0 0 649 963" fill="none" xmlns="http://www.w3.org/2000/svg">
<path d="M110.168 223.864H16.8787C12.4371 223.864 10.2005 218.505 13.3243 215.348L55.8976 172.316L110.168 117.462L163.539 63.5169L215.442 11.0552C216.381 10.1059 217.661 9.57178 218.996 9.57178H324.387H433.337H533.822H622.326C626.767 9.57178 629.004 14.9309 625.88 18.0883L579.3 65.17L524.293 120.768L473.294 172.316L423.763 222.381C422.823 223.33 421.544 223.864 420.208 223.864H319.602H216.909H110.168Z" fill="#530009"/>
<path d="M107.719 215.292H14.4295C9.98789 215.292 7.75125 209.933 10.8751 206.776L53.4484 163.744L107.719 108.89L161.089 54.9452L212.993 2.48344C213.932 1.53416 215.212 1 216.547 1H321.938H430.888H531.372H619.876C624.318 1 626.555 6.35909 623.431 9.51656L576.85 56.5982L521.844 112.196L470.845 163.744L421.313 213.809C420.374 214.758 419.094 215.292 417.759 215.292H317.153H214.46H107.719Z" fill="#530009"/>
<path d="M107.719 215.292H14.4295C9.98789 215.292 7.75125 209.933 10.8751 206.776L53.4484 163.744M107.719 215.292L321.938 1M107.719 215.292H214.46M321.938 1H216.547C215.212 1 213.932 1.53416 212.993 2.48344L161.089 54.9452M321.938 1H430.888M214.46 215.292L430.888 1M214.46 215.292H317.153M430.888 1H531.372M317.153 215.292H417.759C419.094 215.292 420.374 214.758 421.313 213.809L470.845 163.744M317.153 215.292L531.372 1M531.372 1H619.876C624.318 1 626.555 6.35909 623.431 9.51656L576.85 56.5982M470.845 163.744H53.4484M470.845 163.744L521.844 112.196M53.4484 163.744L107.719 108.89M521.844 112.196L107.719 108.89M521.844 112.196L576.85 56.5982M107.719 108.89L161.089 54.9452M576.85 56.5982L161.089 54.9452" stroke="white"/>
<path d="M107.719 469.994H14.4295C9.98789 469.994 7.75125 464.635 10.8751 461.478L53.4484 418.446L107.719 363.592L161.089 309.647L212.993 257.185C213.932 256.236 215.212 255.702 216.547 255.702H321.938H430.888H531.372H619.876C624.318 255.702 626.555 261.061 623.431 264.218L576.85 311.3L521.844 366.898L470.845 418.446L421.313 468.511C420.374 469.46 419.094 469.994 417.759 469.994H317.153H214.46H107.719Z" fill="#530009"/>
<path d="M105.269 461.423H11.9803C7.53867 461.423 5.30203 456.063 8.42589 452.906L50.9992 409.875L105.269 355.02L158.64 301.075L210.543 248.614C211.482 247.664 212.762 247.13 214.098 247.13H319.489H428.439H528.923H617.427C621.869 247.13 624.105 252.489 620.982 255.647L574.401 302.728L519.395 358.327L468.396 409.875L418.864 459.939C417.925 460.888 416.645 461.423 415.31 461.423H314.704H212.011H105.269Z" fill="#530009"/>
<path d="M105.269 461.423H11.9803C7.53867 461.423 5.30203 456.063 8.42589 452.906L50.9992 409.875M105.269 461.423L319.489 247.13M105.269 461.423H212.011M319.489 247.13H214.098C212.762 247.13 211.482 247.664 210.543 248.614L158.64 301.075M319.489 247.13H428.439M212.011 461.423L428.439 247.13M212.011 461.423H314.704M428.439 247.13H528.923M314.704 461.423H415.31C416.645 461.423 417.925 460.888 418.864 459.939L468.396 409.875M314.704 461.423L528.923 247.13M528.923 247.13H617.427C621.869 247.13 624.105 252.489 620.982 255.647L574.401 302.728M468.396 409.875H50.9992M468.396 409.875L519.395 358.327M50.9992 409.875L105.269 355.02M519.395 358.327L105.269 355.02M519.395 358.327L574.401 302.728M105.269 355.02L158.64 301.075M574.401 302.728L158.64 301.075" stroke="white"/>
<path d="M115.065 716.125H21.7762C17.3346 716.125 15.0979 710.766 18.2218 707.608L60.7951 664.577L115.065 609.723L168.436 555.777L220.339 503.316C221.278 502.366 222.558 501.832 223.894 501.832H329.285H438.235H538.719H627.223C631.665 501.832 633.901 507.191 630.778 510.349L584.197 557.43L529.191 613.029L478.192 664.577L428.66 714.641C427.721 715.591 426.441 716.125 425.106 716.125H324.5H221.807H115.065Z" fill="#530009"/>
<path d="M112.616 707.553H19.327C14.8853 707.553 12.6487 702.194 15.7726 699.036L58.3459 656.005L112.616 601.151L165.987 547.206L217.89 494.744C218.829 493.795 220.109 493.26 221.444 493.26H326.835H435.785H536.27H624.774C629.216 493.26 631.452 498.62 628.328 501.777L581.748 548.859L526.742 604.457L475.742 656.005L426.211 706.07C425.272 707.019 423.992 707.553 422.656 707.553H322.05H219.358H112.616Z" fill="#530009"/>
<path d="M112.616 707.553H19.327C14.8853 707.553 12.6487 702.194 15.7726 699.036L58.3459 656.005M112.616 707.553L326.835 493.26M112.616 707.553H219.358M326.835 493.26H221.444C220.109 493.26 218.829 493.795 217.89 494.744L165.987 547.206M326.835 493.26H435.785M219.358 707.553L435.785 493.26M219.358 707.553H322.05M435.785 493.26H536.27M322.05 707.553H422.656C423.992 707.553 425.272 707.019 426.211 706.07L475.742 656.005M322.05 707.553L536.27 493.26M536.27 493.26H624.774C629.216 493.26 631.452 498.62 628.328 501.777L581.748 548.859M475.742 656.005H58.3459M475.742 656.005L526.742 604.457M58.3459 656.005L112.616 601.151M526.742 604.457L112.616 601.151M526.742 604.457L581.748 548.859M112.616 601.151L165.987 547.206M581.748 548.859L165.987 547.206" stroke="white"/>
<path d="M124.862 962.255H31.5731C27.1314 962.255 24.8948 956.896 28.0187 953.738L70.592 910.707L124.862 855.852L178.233 801.907L230.136 749.446C231.075 748.496 232.355 747.962 233.69 747.962H339.081H448.032H548.516H637.02C641.462 747.962 643.698 753.321 640.574 756.479L593.994 803.56L538.988 859.159L487.988 910.707L438.457 960.771C437.518 961.72 436.238 962.255 434.903 962.255H334.297H231.604H124.862Z" fill="#530009"/>
<path d="M122.413 953.683H29.1239C24.6822 953.683 22.4456 948.324 25.5694 945.167L68.1428 902.135L122.413 847.281L175.784 793.336L227.687 740.874C228.626 739.925 229.906 739.391 231.241 739.391H336.632H445.582H546.067H634.571C639.012 739.391 641.249 744.75 638.125 747.907L591.545 794.989L536.539 850.587L485.539 902.135L436.008 952.2C435.069 953.149 433.789 953.683 432.453 953.683H331.847H229.155H122.413Z" fill="#530009"/>
<path d="M122.413 953.683H29.1239C24.6822 953.683 22.4456 948.324 25.5694 945.167L68.1428 902.135M122.413 953.683L336.632 739.391M122.413 953.683H229.155M336.632 739.391H231.241C229.906 739.391 228.626 739.925 227.687 740.874L175.784 793.336M336.632 739.391H445.582M229.155 953.683L445.582 739.391M229.155 953.683H331.847M445.582 739.391H546.067M331.847 953.683H432.453C433.789 953.683 435.069 953.149 436.008 952.2L485.539 902.135M331.847 953.683L546.067 739.391M546.067 739.391H634.571C639.012 739.391 641.249 744.75 638.125 747.907L591.545 794.989M485.539 902.135H68.1428M485.539 902.135L536.539 850.587M68.1428 902.135L122.413 847.281M536.539 850.587L122.413 847.281M536.539 850.587L591.545 794.989M122.413 847.281L175.784 793.336M591.545 794.989L175.784 793.336" stroke="white"/>
</svg>
