<svg width="633" height="224" viewBox="0 0 633 224" fill="none" xmlns="http://www.w3.org/2000/svg">
<path d="M108.168 223.864H14.8787C10.4371 223.864 8.20047 218.505 11.3243 215.348L53.8976 172.316L108.168 117.462L161.539 63.5169L213.442 11.0552C214.381 10.1059 215.661 9.57178 216.996 9.57178H322.387H431.337H531.822H620.326C624.767 9.57178 627.004 14.9309 623.88 18.0883L577.3 65.17L522.293 120.768L471.294 172.316L421.763 222.381C420.823 223.33 419.544 223.864 418.208 223.864H317.602H214.909H108.168Z" fill="#530009"/>
<path d="M105.719 215.292H12.4295C7.98789 215.292 5.75125 209.933 8.87511 206.776L51.4484 163.744L105.719 108.89L159.089 54.9452L210.993 2.48344C211.932 1.53416 213.212 1 214.547 1H319.938H428.888H529.372H617.876C622.318 1 624.555 6.35909 621.431 9.51656L574.85 56.5982L519.844 112.196L468.845 163.744L419.313 213.809C418.374 214.758 417.094 215.292 415.759 215.292H315.153H212.46H105.719Z" fill="#530009"/>
<path d="M105.719 215.292H12.4295C7.98789 215.292 5.75125 209.933 8.87511 206.776L51.4484 163.744M105.719 215.292L319.938 1M105.719 215.292H212.46M319.938 1H214.547C213.212 1 211.932 1.53416 210.993 2.48344L159.089 54.9452M319.938 1H428.888M212.46 215.292L428.888 1M212.46 215.292H315.153M428.888 1H529.372M315.153 215.292H415.759C417.094 215.292 418.374 214.758 419.313 213.809L468.845 163.744M315.153 215.292L529.372 1M529.372 1H617.876C622.318 1 624.555 6.35909 621.431 9.51656L574.85 56.5982M468.845 163.744H51.4484M468.845 163.744L519.844 112.196M51.4484 163.744L105.719 108.89M519.844 112.196L105.719 108.89M519.844 112.196L574.85 56.5982M105.719 108.89L159.089 54.9452M574.85 56.5982L159.089 54.9452" stroke="white"/>
</svg>
