<svg width="635" height="953" viewBox="0 0 635 953" fill="none" xmlns="http://www.w3.org/2000/svg">
<path d="M110.168 223.864H16.8787C12.4371 223.864 10.2005 218.505 13.3243 215.348L55.8976 172.316L110.168 117.462L163.539 63.5169L215.442 11.0552C216.381 10.1059 217.661 9.57178 218.996 9.57178H324.387H433.337H533.822H622.326C626.767 9.57178 629.004 14.9309 625.88 18.0883L579.3 65.17L524.293 120.768L473.294 172.316L423.763 222.381C422.823 223.33 421.544 223.864 420.208 223.864H319.602H216.909H110.168Z" fill="#530009"/>
<path d="M107.719 215.292H14.4295C9.98789 215.292 7.75125 209.933 10.8751 206.776L53.4484 163.744L107.719 108.89L161.089 54.9452L212.993 2.48344C213.932 1.53416 215.212 1 216.547 1H321.938H430.888H531.372H619.876C624.318 1 626.555 6.35909 623.431 9.51656L576.85 56.5982L521.844 112.196L470.845 163.744L421.313 213.809C420.374 214.758 419.094 215.292 417.759 215.292H317.153H214.46H107.719Z" fill="#530009"/>
<path d="M107.719 215.292H14.4295C9.98789 215.292 7.75125 209.933 10.8751 206.776L53.4484 163.744M107.719 215.292L321.938 1M107.719 215.292H214.46M321.938 1H216.547C215.212 1 213.932 1.53416 212.993 2.48344L161.089 54.9452M321.938 1H430.888M214.46 215.292L430.888 1M214.46 215.292H317.153M430.888 1H531.372M317.153 215.292H417.759C419.094 215.292 420.374 214.758 421.313 213.809L470.845 163.744M317.153 215.292L531.372 1M531.372 1H619.876C624.318 1 626.555 6.35909 623.431 9.51656L576.85 56.5982M470.845 163.744H53.4484M470.845 163.744L521.844 112.196M53.4484 163.744L107.719 108.89M521.844 112.196L107.719 108.89M521.844 112.196L576.85 56.5982M107.719 108.89L161.089 54.9452M576.85 56.5982L161.089 54.9452" stroke="white"/>
<path d="M107.719 466.864H14.4295C9.98789 466.864 7.75125 461.505 10.8751 458.348L53.4484 415.316L107.719 360.462L161.089 306.517L212.993 254.055C213.932 253.106 215.212 252.572 216.547 252.572H321.938H430.888H531.372H619.876C624.318 252.572 626.555 257.931 623.431 261.088L576.85 308.17L521.844 363.768L470.845 415.316L421.313 465.381C420.374 466.33 419.094 466.864 417.759 466.864H317.153H214.46H107.719Z" fill="#530009"/>
<path d="M105.269 458.292H11.9803C7.53867 458.292 5.30203 452.933 8.42589 449.776L50.9992 406.744L105.269 351.89L158.64 297.945L210.543 245.483C211.482 244.534 212.762 244 214.098 244H319.489H428.439H528.923H617.427C621.869 244 624.105 249.359 620.982 252.517L574.401 299.598L519.395 355.196L468.396 406.744L418.864 456.809C417.925 457.758 416.645 458.292 415.31 458.292H314.704H212.011H105.269Z" fill="#530009"/>
<path d="M105.269 458.292H11.9803C7.53867 458.292 5.30203 452.933 8.42589 449.776L50.9992 406.744M105.269 458.292L319.489 244M105.269 458.292H212.011M319.489 244H214.098C212.762 244 211.482 244.534 210.543 245.483L158.64 297.945M319.489 244H428.439M212.011 458.292L428.439 244M212.011 458.292H314.704M428.439 244H528.923M314.704 458.292H415.31C416.645 458.292 417.925 457.758 418.864 456.809L468.396 406.744M314.704 458.292L528.923 244M528.923 244H617.427C621.869 244 624.105 249.359 620.982 252.517L574.401 299.598M468.396 406.744H50.9992M468.396 406.744L519.395 355.196M50.9992 406.744L105.269 351.89M519.395 355.196L105.269 351.89M519.395 355.196L574.401 299.598M105.269 351.89L158.64 297.945M574.401 299.598L158.64 297.945" stroke="white"/>
<path d="M109.719 709.864H16.4295C11.9879 709.864 9.75125 704.505 12.8751 701.348L55.4484 658.316L109.719 603.462L163.089 549.517L214.993 497.055C215.932 496.106 217.212 495.572 218.547 495.572H323.938H432.888H533.372H621.876C626.318 495.572 628.555 500.931 625.431 504.088L578.85 551.17L523.844 606.768L472.845 658.316L423.313 708.381C422.374 709.33 421.094 709.864 419.759 709.864H319.153H216.46H109.719Z" fill="#530009"/>
<path d="M107.269 701.292H13.9803C9.53867 701.292 7.30203 695.933 10.4259 692.776L52.9992 649.744L107.269 594.89L160.64 540.945L212.543 488.483C213.482 487.534 214.762 487 216.098 487H321.489H430.439H530.923H619.427C623.869 487 626.105 492.359 622.982 495.517L576.401 542.598L521.395 598.196L470.396 649.744L420.864 699.809C419.925 700.758 418.645 701.292 417.31 701.292H316.704H214.011H107.269Z" fill="#530009"/>
<path d="M107.269 701.292H13.9803C9.53867 701.292 7.30203 695.933 10.4259 692.776L52.9992 649.744M107.269 701.292L321.489 487M107.269 701.292H214.011M321.489 487H216.098C214.762 487 213.482 487.534 212.543 488.483L160.64 540.945M321.489 487H430.439M214.011 701.292L430.439 487M214.011 701.292H316.704M430.439 487H530.923M316.704 701.292H417.31C418.645 701.292 419.925 700.758 420.864 699.809L470.396 649.744M316.704 701.292L530.923 487M530.923 487H619.427C623.869 487 626.105 492.359 622.982 495.517L576.401 542.598M470.396 649.744H52.9992M470.396 649.744L521.395 598.196M52.9992 649.744L107.269 594.89M521.395 598.196L107.269 594.89M521.395 598.196L576.401 542.598M107.269 594.89L160.64 540.945M576.401 542.598L160.64 540.945" stroke="white"/>
<path d="M109.719 952.864H16.4295C11.9879 952.864 9.75125 947.505 12.8751 944.347L55.4484 901.316L109.719 846.462L163.089 792.517L214.993 740.055C215.932 739.106 217.212 738.572 218.547 738.572H323.938H432.888H533.372H621.876C626.318 738.572 628.555 743.931 625.431 747.088L578.85 794.17L523.844 849.768L472.845 901.316L423.313 951.381C422.374 952.33 421.094 952.864 419.759 952.864H319.153H216.46H109.719Z" fill="#530009"/>
<path d="M107.269 944.292H13.9803C9.53867 944.292 7.30203 938.933 10.4259 935.776L52.9992 892.744L107.269 837.89L160.64 783.945L212.543 731.483C213.482 730.534 214.762 730 216.098 730H321.489H430.439H530.923H619.427C623.869 730 626.105 735.359 622.982 738.517L576.401 785.598L521.395 841.196L470.396 892.744L420.864 942.809C419.925 943.758 418.645 944.292 417.31 944.292H316.704H214.011H107.269Z" fill="#530009"/>
<path d="M107.269 944.292H13.9803C9.53867 944.292 7.30203 938.933 10.4259 935.776L52.9992 892.744M107.269 944.292L321.489 730M107.269 944.292H214.011M321.489 730H216.098C214.762 730 213.482 730.534 212.543 731.483L160.64 783.945M321.489 730H430.439M214.011 944.292L430.439 730M214.011 944.292H316.704M430.439 730H530.923M316.704 944.292H417.31C418.645 944.292 419.925 943.758 420.864 942.809L470.396 892.744M316.704 944.292L530.923 730M530.923 730H619.427C623.869 730 626.105 735.359 622.982 738.517L576.401 785.598M470.396 892.744H52.9992M470.396 892.744L521.395 841.196M52.9992 892.744L107.269 837.89M521.395 841.196L107.269 837.89M521.395 841.196L576.401 785.598M107.269 837.89L160.64 783.945M576.401 785.598L160.64 783.945" stroke="white"/>
</svg>
